<?xml version="1.0" encoding="UTF-8"?>
<svg version="1.1" xmlns="http://www.w3.org/2000/svg" width="1024" height="1024">
<path d="M0 0 C-0.60641562 4.38275445 -2.30711245 7.87591373 -4.39453125 11.71484375 C-4.73786499 12.35834274 -5.08119873 13.00184174 -5.43493652 13.6648407 C-6.55449318 15.75917239 -7.68329785 17.8483555 -8.8125 19.9375 C-9.59251947 21.39150775 -10.37205697 22.84577416 -11.15112305 24.30029297 C-13.42440014 28.53878334 -15.70998719 32.77053273 -18 37 C-18.58910156 38.08845215 -19.17820312 39.1769043 -19.78515625 40.29833984 C-22.68436684 45.6453176 -25.6013195 50.98237793 -28.52783203 56.31445312 C-31.27721247 61.32990666 -34.01243289 66.35309197 -36.75 71.375 C-37.76557054 73.23700887 -38.78119017 75.09899097 -39.796875 76.9609375 C-40.22323242 77.74259277 -40.64958984 78.52424805 -41.08886719 79.32958984 C-41.53987793 80.15644287 -41.53987793 80.15644287 -42 81 C-44.99469854 80.40985147 -46.87986667 79.56484294 -49.2578125 77.6640625 C-49.87414551 77.18219482 -50.49047852 76.70032715 -51.12548828 76.20385742 C-52.11524658 75.422323 -52.11524658 75.422323 -53.125 74.625 C-85.59174174 49.67280456 -128.02783796 31.73135614 -169.6875 36.6875 C-185.58383524 39.16103203 -200.20314182 44.65093227 -210 58 C-216.11547059 67.89110895 -216.4517344 79.9467977 -214.421875 91.20703125 C-210.3383671 104.18144954 -198.85917351 112.68647994 -187.3125 118.8125 C-167.06012023 128.89545663 -143.88805537 133.36735133 -122.07873535 138.84301758 C-79.14742957 149.64165833 -33.10537338 164.70878687 -9 205 C10.05624563 238.58698374 11.45112107 276.96110661 2.125 313.8125 C-3.01127021 331.98253859 -10.94226053 347.54955285 -23 362 C-23.7425 362.89589844 -24.485 363.79179688 -25.25 364.71484375 C-34.06014651 374.92517426 -44.83497963 382.59419834 -56 390 C-56.78503906 390.53367187 -57.57007813 391.06734375 -58.37890625 391.6171875 C-97.16685932 416.57639209 -150.18799459 421.20478618 -194.90625 415.4375 C-199.28576679 414.89219052 -203.59015369 414.9305536 -208 415 C-208 414.67 -208 414.34 -208 414 C-208.71728271 413.86013672 -209.43456543 413.72027344 -210.17358398 413.57617188 C-254.92168539 404.72966601 -297.39510829 388.93424531 -332.4375 359 C-333.07099365 358.45996338 -333.7044873 357.91992676 -334.35717773 357.36352539 C-334.93927002 356.85168701 -335.5213623 356.33984863 -336.12109375 355.8125 C-336.6308374 355.36519531 -337.14058105 354.91789062 -337.66577148 354.45703125 C-339.20500292 352.77612856 -340.06928574 351.07034741 -341 349 C-340.64373535 348.48155518 -340.2874707 347.96311035 -339.92041016 347.42895508 C-335.78898688 341.33493835 -332.04742061 335.06616028 -328.375 328.6875 C-322.49447973 318.54221838 -316.52922846 308.45503009 -310.45556641 298.42431641 C-308.93468509 295.89121486 -307.44052732 293.34357795 -305.94921875 290.79296875 C-304.9662809 289.13273253 -303.98321298 287.4725733 -303 285.8125 C-302.55503174 285.03922363 -302.11006348 284.26594727 -301.65161133 283.46923828 C-301.23032959 282.76395996 -300.80904785 282.05868164 -300.375 281.33203125 C-299.82972656 280.39967651 -299.82972656 280.39967651 -299.2734375 279.44848633 C-297.60984716 277.5562161 -296.49178922 277.21648205 -294 277 C-291.77800371 278.42111416 -289.88380444 279.82068201 -287.875 281.5 C-286.70166382 282.43893012 -285.52717629 283.3764232 -284.3515625 284.3125 C-283.48966309 285.00666016 -283.48966309 285.00666016 -282.61035156 285.71484375 C-254.94489013 307.79352613 -220.78456421 320.98594144 -186 326 C-184.72253906 326.19207031 -183.44507813 326.38414062 -182.12890625 326.58203125 C-160.49452925 329.16212902 -135.33649279 327.81898379 -117.06640625 314.73046875 C-109.52774746 308.41737642 -104.56695291 301.80696389 -103 292 C-102.24940398 281.96125942 -102.06483893 272.07781452 -107 263 C-107.66 262.34 -108.32 261.68 -109 261 C-109.30292969 260.21238281 -109.60585938 259.42476562 -109.91796875 258.61328125 C-114.5139098 247.51333698 -128.50160574 241.34664542 -138.92919922 236.8984375 C-152.91627404 231.1914278 -167.34480241 227.5192118 -182.0390625 224.1328125 C-183.09856613 223.88856789 -183.09856613 223.88856789 -184.17947388 223.63938904 C-185.25344925 223.39189659 -185.25344925 223.39189659 -186.34912109 223.1394043 C-187.43564972 222.88892838 -187.43564972 222.88892838 -188.54412842 222.63339233 C-190.01281357 222.29490106 -191.48160413 221.95686681 -192.95050049 221.61929321 C-205.93772071 218.62303357 -218.62114283 214.9852991 -231.30078125 210.86083984 C-234.79032686 209.74794749 -238.30415836 208.72680652 -241.82617188 207.72192383 C-244.02987036 206.99008012 -245.95130243 206.08987453 -248 205 C-248.77964111 204.5877417 -249.55928223 204.1754834 -250.36254883 203.75073242 C-253.18187036 202.23455452 -255.99765707 200.71197616 -258.8125 199.1875 C-260.27139648 198.40536133 -260.27139648 198.40536133 -261.75976562 197.60742188 C-267.11856869 194.70125989 -272.13248604 191.67269882 -277 188 C-277.66 188.33 -278.32 188.66 -279 189 C-279.33 188.01 -279.66 187.02 -280 186 C-281.59408698 184.58528397 -283.25106865 183.24075901 -284.9375 181.9375 C-309.53720057 162.13077335 -323.08442274 135.32423922 -326.53515625 104.125 C-327.15540446 97.70912433 -327.40060981 91.43889229 -327 85 C-326.96277832 84.34708984 -326.92555664 83.69417969 -326.88720703 83.02148438 C-324.78109616 49.84830954 -310.7492416 21.78534567 -288 -2 C-287.40058594 -2.639375 -286.80117188 -3.27875 -286.18359375 -3.9375 C-284.83695513 -5.33930213 -283.42566564 -6.67865135 -282 -8 C-281.34 -8 -280.68 -8 -280 -8 C-280 -8.66 -280 -9.32 -280 -10 C-278.6015625 -11.27758789 -278.6015625 -11.27758789 -276.625 -12.72265625 C-275.89547119 -13.25673096 -275.16594238 -13.79080566 -274.41430664 -14.34106445 C-273.61758545 -14.90913818 -272.82086426 -15.47721191 -272 -16.0625 C-271.18200928 -16.64668701 -270.36401855 -17.23087402 -269.52124023 -17.83276367 C-195.60794605 -69.8357649 -84.31777597 -60.80550591 0 0 Z " fill="#3F71FE" transform="translate(672,327)"/>
<path d="M0 0 C3.99944428 0.42003296 6.52765556 2.71413823 9.625 5.125 C10.70625222 5.95284141 11.78829333 6.77965339 12.87109375 7.60546875 C13.90363281 8.39566406 14.93617188 9.18585937 16 10 C34.82545346 24.06569537 56.42598685 35.41157834 79 42 C76.56661348 43.53508028 75.32875493 44.03088304 72.421875 43.7578125 C71.54015625 43.54898438 70.6584375 43.34015625 69.75 43.125 C68.85796875 42.92132812 67.9659375 42.71765625 67.046875 42.5078125 C66.03367187 42.25644531 66.03367187 42.25644531 65 42 C65 41.34 65 40.68 65 40 C64.12988281 39.81824219 64.12988281 39.81824219 63.2421875 39.6328125 C50.14080975 36.82228592 50.14080975 36.82228592 46 33 C46 32.34 46 31.68 46 31 C45.32453125 30.82984375 44.6490625 30.6596875 43.953125 30.484375 C38.84086744 29.09549578 35.55197927 28.09843761 32 24 C29.8618034 23.2127322 29.8618034 23.2127322 28 23 C28 22.34 28 21.68 28 21 C27.071875 20.71125 26.14375 20.4225 25.1875 20.125 C22 19 22 19 19 17 C19 16.34 19 15.68 19 15 C18.01 15 17.02 15 16 15 C16 14.34 16 13.68 16 13 C15.443125 12.938125 14.88625 12.87625 14.3125 12.8125 C11.06705986 11.67221022 9.37611236 9.43703832 7 7 C6.01 6.67 5.02 6.34 4 6 C4 5.34 4 4.68 4 4 C2.04105639 4.11306697 2.04105639 4.11306697 0 5 C-0.72904086 6.64034193 -1.38655243 8.31301918 -2 10 C-2.9590625 11.175625 -2.9590625 11.175625 -3.9375 12.375 C-6.32152532 15.40921404 -7.50600086 18.45175204 -9 22 C-10.21513207 24.156032 -11.49933005 26.01524297 -13 28 C-13.66 28 -14.32 28 -15 28 C-15.12375 28.721875 -15.2475 29.44375 -15.375 30.1875 C-16.00568316 33.02557421 -16.67074229 35.41144551 -18 38 C-19.0209375 38.495 -19.0209375 38.495 -20.0625 39 C-20.701875 39.33 -21.34125 39.66 -22 40 C-22.74524194 42.47608101 -22.74524194 42.47608101 -23 45 C-23.33 45.66 -23.66 46.32 -24 47 C-24.66 47 -25.32 47 -26 47 C-25.77699219 47.5775 -25.55398438 48.155 -25.32421875 48.75 C-25 51 -25 51 -26.14453125 53 C-26.69496094 53.66 -27.24539063 54.32 -27.8125 55 C-29.94724852 57.59617873 -31.54224933 59.97797072 -33 63 C-34.12137999 64.91039917 -35.26909732 66.80549224 -36.4375 68.6875 C-37.03433594 69.66074219 -37.63117188 70.63398437 -38.24609375 71.63671875 C-40 74 -40 74 -43 75 C-43.33 74.01 -43.66 73.02 -44 72 C-43.01806641 70.13598633 -43.01806641 70.13598633 -41.4765625 68.01953125 C-37.78520313 62.74844028 -34.58423831 57.26165479 -31.375 51.6875 C-25.0218375 40.72679928 -18.56448661 29.83533113 -12 19 C-11.48179687 18.1445459 -10.96359375 17.2890918 -10.4296875 16.40771484 C-8.89315683 13.87442614 -7.35367374 11.34296628 -5.8125 8.8125 C-5.34239502 8.03922363 -4.87229004 7.26594727 -4.38793945 6.46923828 C-1.11837486 1.11837486 -1.11837486 1.11837486 0 0 Z " fill="#5F5BF5" transform="translate(375,604)"/>
<path d="M0 0 C1.0625 1.8125 1.0625 1.8125 2 4 C1.67 4.99 1.34 5.98 1 7 C0.90555903 8.89790708 0.86928342 10.79896456 0.8671875 12.69921875 C0.86589844 13.82650391 0.86460937 14.95378906 0.86328125 16.11523438 C0.86714844 17.29408203 0.87101562 18.47292969 0.875 19.6875 C0.87113281 20.84701172 0.86726563 22.00652344 0.86328125 23.20117188 C0.72996239 33.75822045 0.72996239 33.75822045 3.125 43.9375 C4.32433694 48.1351793 3.69998479 51.74333573 3 56 C3.99 56 4.98 56 6 56 C9.42857143 64.42857143 9.42857143 64.42857143 9 69 C9.66 69 10.32 69 11 69 C14.07692308 74.29230769 14.07692308 74.29230769 13.6875 77.875 C13.460625 78.57625 13.23375 79.2775 13 80 C9.23175515 75.83422603 7.37625077 71.61562758 5.4375 66.4375 C4.98080933 65.23105835 4.98080933 65.23105835 4.51489258 64.00024414 C-2.63981519 44.73905324 -4.63053031 24.38660993 -2 4 C-1.34 4 -0.68 4 0 4 C0 2.68 0 1.36 0 0 Z " fill="#3A86F8" transform="translate(348,398)"/>
<path d="M0 0 C0 0.33 0 0.66 0 1 C-3.3 1 -6.6 1 -10 1 C-10 1.33 -10 1.66 -10 2 C-13.73857281 2.19676699 -17.00234496 1.82970486 -20.625 1 C-26.42834787 -0.2562125 -32.08853402 -0.18282884 -38 0 C-38 -0.66 -38 -1.32 -38 -2 C-38.76441406 -1.835 -39.52882813 -1.67 -40.31640625 -1.5 C-46.15415423 -0.70760155 -51.97655053 -0.96038864 -57.85742188 -1.0390625 C-63.0359799 -1.08153871 -67.86945649 -0.78231692 -73 0 C-75.64511313 0.06515057 -78.29168825 0.08591426 -80.9375 0.0625 C-81.62134766 0.05798828 -82.30519531 0.05347656 -83.00976562 0.04882812 C-84.67321604 0.0371956 -86.3366205 0.01926694 -88 0 C-88 -0.33 -88 -0.66 -88 -1 C-86.60974609 -1.19916016 -86.60974609 -1.19916016 -85.19140625 -1.40234375 C-83.99386719 -1.57894531 -82.79632813 -1.75554687 -81.5625 -1.9375 C-80.36753906 -2.11152344 -79.17257812 -2.28554688 -77.94140625 -2.46484375 C-75.12044324 -2.68985213 -75.12044324 -2.68985213 -74 -4 C-49.85030722 -6.84779665 -23.75044493 -4.93598276 0 0 Z " fill="#2B90FB" transform="translate(571,280)"/>
<path d="M0 0 C1.32 0.66 2.64 1.32 4 2 C3.01 2 2.02 2 1 2 C1 2.66 1 3.32 1 4 C-0.6796875 5.2890625 -0.6796875 5.2890625 -2.875 6.625 C-3.59429687 7.07101562 -4.31359375 7.51703125 -5.0546875 7.9765625 C-7 9 -7 9 -9 9 C-9.268125 9.598125 -9.53625 10.19625 -9.8125 10.8125 C-11.39482311 13.72730573 -12.889614 15.49853536 -15.9375 16.875 C-18.20011293 17.9341657 -18.20011293 17.9341657 -19.875 20.375 C-22 23 -22 23 -25.125 25.0625 C-28.03877836 27.02613324 -28.69642595 27.89147727 -30 31 C-30.97648017 32.02297922 -31.98131338 33.01904252 -33 34 C-35.77395616 37.25939848 -38.47445192 40.54398684 -41 44 C-41.66 43.67 -42.32 43.34 -43 43 C-38.28500291 32.42311463 -28.65762311 22.50026724 -20 15 C-19.34 15 -18.68 15 -18 15 C-18 14.34 -18 13.68 -18 13 C-16.34765625 11.57958984 -16.34765625 11.57958984 -14.0625 9.9609375 C-13.25039063 9.38085938 -12.43828125 8.80078125 -11.6015625 8.203125 C-10.74304688 7.59984375 -9.88453125 6.9965625 -9 6.375 C-8.14148438 5.76398438 -7.28296875 5.15296875 -6.3984375 4.5234375 C-4.2697303 3.00969016 -2.13684266 1.5022307 0 0 Z " fill="#3191F9" transform="translate(410,304)"/>
<path d="M0 0 C14.37814354 5.55750938 27.34019815 15.02418837 39 25 C38.40165275 29.14298667 36.99335715 32.18194377 34.9375 35.8125 C34.38964844 36.78832031 33.84179688 37.76414062 33.27734375 38.76953125 C32.85582031 39.50558594 32.43429687 40.24164063 32 41 C31.34 40.01 30.68 39.02 30 38 C32.75 32.125 32.75 32.125 35 31 C35.34524155 28.65792286 35.34524155 28.65792286 35 26 C28.87068264 19.05155728 16.89821763 10.96607254 8 8 C8 7.34 8 6.68 8 6 C6.824375 5.7834375 6.824375 5.7834375 5.625 5.5625 C3 5 3 5 1 4 C0.375 1.9375 0.375 1.9375 0 0 Z " fill="#3392F8" transform="translate(633,302)"/>
<path d="M0 0 C4.49998618 -0.02922653 8.99994765 -0.04687482 13.5 -0.0625 C14.7684375 -0.07087891 16.036875 -0.07925781 17.34375 -0.08789062 C23.66083499 -0.10434137 29.75810372 -0.00091014 36 1 C36 1.33 36 1.66 36 2 C35.37657715 2.01981934 34.7531543 2.03963867 34.11083984 2.06005859 C16.40252056 2.6506622 0.73578129 3.95652342 -16 10 C-17.99817605 10.67211376 -19.99757143 11.34066376 -22 12 C-22.66 11.34 -23.32 10.68 -24 10 C-16.6000784 5.93887166 -8.61265293 2 0 2 C0 1.34 0 0.68 0 0 Z " fill="#2D8DFB" transform="translate(496,360)"/>
<path d="M0 0 C-0.66 0.99 -1.32 1.98 -2 3 C-3.98 2.67 -5.96 2.34 -8 2 C-8.66 2.99 -9.32 3.98 -10 5 C-11.61954823 5.23618412 -13.24190963 5.4607314 -14.87109375 5.6171875 C-17.46563946 6.08372966 -19.6438378 7.01915552 -22.0625 8.0625 C-25.98948215 9.73191299 -28.73632806 10 -33 10 C-34.41083963 10.88587604 -35.81766709 11.78314001 -37.16015625 12.76953125 C-39.55331459 14.37005116 -42.03469589 15.6194077 -44.625 16.875 C-45.54539062 17.32617188 -46.46578125 17.77734375 -47.4140625 18.2421875 C-50 19 -50 19 -52.16162109 18.04736328 C-52.76828613 17.7017334 -53.37495117 17.35610352 -54 17 C-10.46213833 -3.52793037 -10.46213833 -3.52793037 0 0 Z " fill="#3898F9" transform="translate(474,281)"/>
<path d="M0 0 C12.73684211 6.31052632 12.73684211 6.31052632 17 11 C22.49505218 16.366136 32.11363983 25 40 25 C40 25.99 40 26.98 40 28 C40.763125 28.144375 41.52625 28.28875 42.3125 28.4375 C45 29 45 29 48 30 C48 31.32 48 32.64 48 34 C29.9402268 27.27382749 13.95010174 13.9536659 0 1 C0 0.67 0 0.34 0 0 Z " fill="#6055F2" transform="translate(333,679)"/>
<path d="M0 0 C2.31 0 4.62 0 7 0 C-1.59284514 9.17101801 -14.31973911 13.55765392 -25.76757812 18.11132812 C-27.25681096 18.70415484 -28.74003112 19.31231269 -30.21679688 19.93554688 C-33.95003186 21.45854098 -36.15225667 22.25003906 -40 21 C-39 19 -39 19 -36.12890625 17.9296875 C-34.95199219 17.58164062 -33.77507813 17.23359375 -32.5625 16.875 C-31.38816406 16.52179687 -30.21382812 16.16859375 -29.00390625 15.8046875 C-26 15 -26 15 -24 15 C-24 14.34 -24 13.68 -24 13 C-20.535 12.505 -20.535 12.505 -17 12 C-17 11.34 -17 10.68 -17 10 C-16.34 10 -15.68 10 -15 10 C-15 9.34 -15 8.68 -15 8 C-11.7 7.34 -8.4 6.68 -5 6 C-4.67 5.01 -4.34 4.02 -4 3 C-2.68 3 -1.36 3 0 3 C0 2.01 0 1.02 0 0 Z " fill="#6159F4" transform="translate(615,712)"/>
<path d="M0 0 C2.26171875 0.4609375 2.26171875 0.4609375 4.6875 1.375 C5.49574219 1.67148437 6.30398438 1.96796875 7.13671875 2.2734375 C7.75160156 2.51320313 8.36648438 2.75296875 9 3 C9 3.66 9 4.32 9 5 C14.94 6.485 14.94 6.485 21 8 C21 8.66 21 9.32 21 10 C21.71671875 10.12375 22.4334375 10.2475 23.171875 10.375 C26.0229164 11.0050644 28.53963831 11.92219535 31.25 13 C36.24775044 14.87161346 40.68708244 15.65161196 46 16 C46 16.99 46 17.98 46 19 C40.05088209 19.36439337 35.50599172 18.15409269 29.9375 16.125 C29.08639648 15.82198975 28.23529297 15.51897949 27.35839844 15.20678711 C16.97937992 11.41025139 6.97970386 6.73076897 -3 2 C-2.01 1.34 -1.02 0.68 0 0 Z " fill="#6256F4" transform="translate(384,712)"/>
<path d="M0 0 C5.95703125 -0.29296875 5.95703125 -0.29296875 8 0 C9.62768555 1.51831055 9.62768555 1.51831055 11 3 C-8.43382375 6.02155109 -27.39246219 6.35458313 -47 6 C-47 5.67 -47 5.34 -47 5 C-46.04287109 4.92652344 -46.04287109 4.92652344 -45.06640625 4.8515625 C-44.24011719 4.77679687 -43.41382813 4.70203125 -42.5625 4.625 C-41.73878906 4.55539062 -40.91507812 4.48578125 -40.06640625 4.4140625 C-39.38449219 4.27742187 -38.70257813 4.14078125 -38 4 C-37.67 3.34 -37.34 2.68 -37 2 C-36.24380371 2.00523682 -35.48760742 2.01047363 -34.70849609 2.01586914 C-31.26400593 2.03672724 -27.8195291 2.04968826 -24.375 2.0625 C-23.18519531 2.07087891 -21.99539063 2.07925781 -20.76953125 2.08789062 C-19.61582031 2.09111328 -18.46210937 2.09433594 -17.2734375 2.09765625 C-16.21560059 2.10289307 -15.15776367 2.10812988 -14.06787109 2.11352539 C-10.96761415 1.99880157 -8.05449786 1.51701908 -5 1 C-2.625 1.4375 -2.625 1.4375 -1 2 C-0.67 1.34 -0.34 0.68 0 0 Z " fill="#756FF5" transform="translate(540,738)"/>
<path d="M0 0 C6.43311296 -0.09507063 12.65758005 -0.15316726 19 1 C19 1.66 19 2.32 19 3 C20.10859375 3.03738281 21.2171875 3.07476563 22.359375 3.11328125 C23.82294974 3.17895448 25.28648991 3.24540135 26.75 3.3125 C27.84441406 3.34633789 27.84441406 3.34633789 28.9609375 3.38085938 C33.20570619 3.59309781 35.913858 3.97070799 39 7 C8.30376974 7.63655777 8.30376974 7.63655777 1.16796875 1.3984375 C0.78253906 0.93695312 0.39710938 0.47546875 0 0 Z " fill="#5E52F4" transform="translate(451,736)"/>
<path d="M0 0 C-0.26033447 7.48461589 -1.16030081 14.5362882 -2.875 21.8125 C-3.03645508 22.504646 -3.19791016 23.19679199 -3.36425781 23.90991211 C-4.55722925 28.76576915 -6.17553604 33.34501052 -8 38 C-8.99 38 -9.98 38 -11 38 C-11.33 37.34 -11.66 36.68 -12 36 C-11.0625 33.875 -11.0625 33.875 -10 32 C-9.34 32 -8.68 32 -8 32 C-7.34 26.39 -6.68 20.78 -6 15 C-5.34 15 -4.68 15 -4 15 C-4.03480469 14.16855469 -4.06960938 13.33710937 -4.10546875 12.48046875 C-4.13253906 11.39378906 -4.15960937 10.30710937 -4.1875 9.1875 C-4.22230469 8.10855469 -4.25710938 7.02960937 -4.29296875 5.91796875 C-4 3 -4 3 -2.55078125 1.11328125 C-1 0 -1 0 0 0 Z " fill="#6461F5" transform="translate(678,616)"/>
<path d="M0 0 C1 3 1 3 0.30664062 4.94189453 C-0.07298828 5.66489746 -0.45261719 6.38790039 -0.84375 7.1328125 C-1.47228882 8.33683716 -1.47228882 8.33683716 -2.11352539 9.56518555 C-2.57106201 10.40992432 -3.02859863 11.25466309 -3.5 12.125 C-3.95689209 12.9806958 -4.41378418 13.8363916 -4.88452148 14.71801758 C-8.04692768 20.52897361 -11.33102268 26.24535337 -16 31 C-16.33 31 -16.66 31 -17 31 C-17.25 28.75 -17.25 28.75 -17 26 C-15.69026002 24.6434836 -14.35197858 23.31442362 -13 22 C-11.51759634 19.40078548 -10.24175555 16.72129407 -9 14 C-8.34 14 -7.68 14 -7 14 C-6.67 12.02 -6.34 10.04 -6 8 C-5.34 8 -4.68 8 -4 8 C-4 6.02 -4 4.04 -4 2 C-2.68 1.34 -1.36 0.68 0 0 Z " fill="#5D57F4" transform="translate(668,654)"/>
<path d="M0 0 C0.33 0.66 0.66 1.32 1 2 C0.01196289 4.24658203 0.01196289 4.24658203 -1.52734375 7.0078125 C-2.34428711 8.48701172 -2.34428711 8.48701172 -3.17773438 9.99609375 C-3.75845703 11.02863281 -4.33917969 12.06117188 -4.9375 13.125 C-5.51435547 14.16527344 -6.09121094 15.20554687 -6.68554688 16.27734375 C-8.11660809 18.85561933 -9.55500894 21.42951339 -11 24 C-15.24925258 23.21007484 -17.08910865 21.15346563 -20 18 C-16.62537285 18.54723683 -14.91765 19.0549 -12 21 C-11.67 19.02 -11.34 17.04 -11 15 C-10.34 15 -9.68 15 -9 15 C-8.896875 14.0925 -8.79375 13.185 -8.6875 12.25 C-7.99350187 8.96928156 -7.29914332 7.39110905 -5 5 C-4.34 5 -3.68 5 -3 5 C-3 3.68 -3 2.36 -3 1 C-2.01 0.67 -1.02 0.34 0 0 Z " fill="#3491FB" transform="translate(641,384)"/>
<path d="M0 0 C0.99 0.33 1.98 0.66 3 1 C-0.85943216 9.7641272 -9.88648509 18.12310385 -18 23 C-18.99 22.67 -19.98 22.34 -21 22 C-18.53362623 18.65277846 -16.70046607 16.7905481 -13 15 C-11.98758315 13.67607028 -10.98560611 12.34400833 -10 11 C-9.34 11 -8.68 11 -8 11 C-7.896875 10.360625 -7.79375 9.72125 -7.6875 9.0625 C-7.3471875 8.0415625 -7.3471875 8.0415625 -7 7 C-6.01 6.67 -5.02 6.34 -4 6 C-2.3553326 3.53673288 -2.3553326 3.53673288 -1 1 C-0.67 0.67 -0.34 0.34 0 0 Z " fill="#554AF5" transform="translate(648,684)"/>
<path d="M0 0 C0.33 0.66 0.66 1.32 1 2 C-0.07983398 4.43017578 -0.07983398 4.43017578 -1.74609375 7.4453125 C-2.33583984 8.52167969 -2.92558594 9.59804688 -3.53320312 10.70703125 C-4.16162109 11.83496094 -4.79003906 12.96289062 -5.4375 14.125 C-6.06205078 15.26066406 -6.68660156 16.39632813 -7.33007812 17.56640625 C-8.87962753 20.38161814 -10.43652715 23.19250403 -12 26 C-12.33 25.34 -12.66 24.68 -13 24 C-13.66 23.67 -14.32 23.34 -15 23 C-14.34 23 -13.68 23 -13 23 C-12.855625 22.401875 -12.71125 21.80375 -12.5625 21.1875 C-12.1127561 19.43849596 -11.57107659 17.71322977 -11 16 C-10.34 16 -9.68 16 -9 16 C-9 14.68 -9 13.36 -9 12 C-8.34 12 -7.68 12 -7 12 C-6.8453125 11.2265625 -6.8453125 11.2265625 -6.6875 10.4375 C-5.7500472 7.1138037 -4.52076126 4.10001334 -3 1 C-2.01 0.67 -1.02 0.34 0 0 Z " fill="#3793F9" transform="translate(655,358)"/>
<path d="M0 0 C4.36806054 8.40256409 3.41160283 18.86754344 2 28 C1.34 28.66 0.68 29.32 0 30 C-1 29 -1 29 -1.02172852 26.22436523 C-0.97459717 25.01466064 -0.92746582 23.80495605 -0.87890625 22.55859375 C-0.83056641 21.25341797 -0.78222656 19.94824219 -0.73242188 18.60351562 C-0.67589169 17.21483925 -0.61924959 15.82616743 -0.5625 14.4375 C-0.50929453 13.04493979 -0.45655404 11.65236174 -0.40429688 10.25976562 C-0.27411909 6.83964019 -0.1391382 3.41977076 0 0 Z " fill="#5A5BF7" transform="translate(570,597)"/>
<path d="M0 0 C10.01834862 3.01834862 10.01834862 3.01834862 13 6 C13 6.66 13 7.32 13 8 C14.65 7.67 16.3 7.34 18 7 C18.33 9.31 18.66 11.62 19 14 C15.07950314 12.17306821 11.45953405 9.87315924 7.8125 7.5625 C7.17119141 7.16740234 6.52988281 6.77230469 5.86914062 6.36523438 C1.11630511 3.34891532 1.11630511 3.34891532 0 0 Z " fill="#3191FB" transform="translate(598,385)"/>
<path d="M0 0 C6.54737841 -0.15856416 12.61632812 0.38979817 19.0625 1.5 C19.92810547 1.64308594 20.79371094 1.78617187 21.68554688 1.93359375 C23.7914397 2.28263676 25.89588495 2.64039539 28 3 C28 3.33 28 3.66 28 4 C24.7 4 21.4 4 18 4 C18 4.33 18 4.66 18 5 C12.62187757 5.28305908 7.1191424 4.72172595 2 3 C1.34 2.01 0.68 1.02 0 0 Z " fill="#429CF8" transform="translate(543,277)"/>
<path d="M0 0 C3.52943169 1.17647723 4.03729465 2.36772211 5.70288086 5.56005859 C6.15932983 6.48939209 6.15932983 6.48939209 6.625 7.4375 C6.93767822 8.06479004 7.25035645 8.69208008 7.57250977 9.33837891 C10.01569417 14.49278193 11.09256166 19.261177 11 25 C9.19969878 22.29954818 8.06622934 19.93322119 6.875 16.9375 C6.52179687 16.05964844 6.16859375 15.18179688 5.8046875 14.27734375 C5 12 5 12 5 10 C4.34 10 3.68 10 3 10 C1.87119943 6.68885166 0.78697325 3.41021743 0 0 Z " fill="#4A53F3" transform="translate(661,533)"/>
<path d="M0 0 C4.81919471 0.67487737 8.91883866 2.57965909 13.3125 4.5625 C14.42334961 5.0565332 14.42334961 5.0565332 15.55664062 5.56054688 C17.37311562 6.36917123 19.18683931 7.18397116 21 8 C18 10 18 10 16.11474609 9.63208008 C15.42461426 9.34743896 14.73448242 9.06279785 14.0234375 8.76953125 C13.270625 8.46080078 12.5178125 8.15207031 11.7421875 7.83398438 C10.96101562 7.49689453 10.17984375 7.15980469 9.375 6.8125 C8.58609375 6.49474609 7.7971875 6.17699219 6.984375 5.84960938 C2.6458154 4.02696707 2.6458154 4.02696707 1 3 C0.67 2.01 0.34 1.02 0 0 Z " fill="#4F72F8" transform="translate(589,478)"/>
<path d="M0 0 C0.85271484 0.42925781 0.85271484 0.42925781 1.72265625 0.8671875 C3.19936745 1.60174367 4.6860803 2.31665245 6.18359375 3.0078125 C12.11034934 5.94551111 15.07737447 9.08131614 18 15 C15.17281381 13.69124646 12.90757461 12.24296047 10.546875 10.21484375 C9.928125 9.68439453 9.309375 9.15394531 8.671875 8.60742188 C8.03765625 8.05634766 7.4034375 7.50527344 6.75 6.9375 C6.1003125 6.38255859 5.450625 5.82761719 4.78125 5.25585938 C3.16545231 3.8624036 1.57983418 2.43410081 0 1 C0 0.67 0 0.34 0 0 Z " fill="#6B64F0" transform="translate(333,679)"/>
<path d="M0 0 C7.37653219 0.75015582 14.67831776 1.83441535 22 3 C22 3.33 22 3.66 22 4 C21.15695312 4.06058594 20.31390625 4.12117187 19.4453125 4.18359375 C18.34960938 4.26738281 17.25390625 4.35117187 16.125 4.4375 C14.48917969 4.55931641 14.48917969 4.55931641 12.8203125 4.68359375 C10.05271029 4.83001703 10.05271029 4.83001703 8 6 C8 5.34 8 4.68 8 4 C6.8553125 4.12375 6.8553125 4.12375 5.6875 4.25 C3 4 3 4 1.1875 2 C0.5996875 1.01 0.5996875 1.01 0 0 Z " fill="#6B69F5" transform="translate(464,650)"/>
<path d="M0 0 C1.9375 1 1.9375 1 4 3 C5.07085686 8.02478988 5.13672175 11.94790333 4 17 C4.66 17.33 5.32 17.66 6 18 C5.34 18.99 4.68 19.98 4 21 C3.32382476 18.62734939 2.65891774 16.25244645 2 13.875 C1.80921875 13.20984375 1.6184375 12.5446875 1.421875 11.859375 C0.30791545 7.8013795 -0.20950232 4.20314026 0 0 Z " fill="#4990F7" transform="translate(347,437)"/>
<path d="M0 0 C0.66 0.99 1.32 1.98 2 3 C1.66226562 3.56847656 1.32453125 4.13695312 0.9765625 4.72265625 C-1.74688739 9.43753048 -3.75866982 13.69613469 -5 19 C-5.99 18.67 -6.98 18.34 -8 18 C-7.17057025 11.364562 -3.48868442 5.58189507 0 0 Z " fill="#368FFB" transform="translate(462,379)"/>
<path d="M0 0 C3.96 0.33 7.92 0.66 12 1 C12.33 2.32 12.66 3.64 13 5 C5.41 4.34 -2.18 3.68 -10 3 C-10 2.67 -10 2.34 -10 2 C-6.7 1.67 -3.4 1.34 0 1 C0 0.67 0 0.34 0 0 Z " fill="#489FFA" transform="translate(529,360)"/>
<path d="M0 0 C0.82514784 2.83384108 1.07936233 5.16935251 0.87890625 8.109375 C0.83056641 8.86347656 0.78222656 9.61757813 0.73242188 10.39453125 C0.64831055 11.56048828 0.64831055 11.56048828 0.5625 12.75 C0.51029297 13.54277344 0.45808594 14.33554687 0.40429688 15.15234375 C0.27510676 17.10193997 0.13830035 19.05102886 0 21 C-2.69909604 17.63338559 -3.6373081 15.35230277 -4 11 C-3.5625 8.625 -3.5625 8.625 -3 7 C-2.34 7 -1.68 7 -1 7 C-0.67 4.69 -0.34 2.38 0 0 Z " fill="#1774FA" transform="translate(455,394)"/>
<path d="M0 0 C3.94949704 0.62816498 7.19892028 1.8645529 10.8125 3.5625 C12.27623047 4.24505859 12.27623047 4.24505859 13.76953125 4.94140625 C14.87361328 5.46541016 14.87361328 5.46541016 16 6 C15.34 6.66 14.68 7.32 14 8 C8.54545455 7.54545455 8.54545455 7.54545455 6 5 C5.34 4.87625 4.68 4.7525 4 4.625 C2 4 2 4 0.75 1.9375 C0.5025 1.298125 0.255 0.65875 0 0 Z " fill="#3C7DFA" transform="translate(476,443)"/>
<path d="M0 0 C-1.65 0.33 -3.3 0.66 -5 1 C-5 1.66 -5 2.32 -5 3 C-6.40691607 3.72750788 -7.82606022 4.43140353 -9.25 5.125 C-10.03890625 5.51945312 -10.8278125 5.91390625 -11.640625 6.3203125 C-14 7 -14 7 -16.296875 6.1171875 C-16.85890625 5.74851562 -17.4209375 5.37984375 -18 5 C-16.41925436 4.18247697 -14.83528777 3.37118003 -13.25 2.5625 C-12.36828125 2.11003906 -11.4865625 1.65757812 -10.578125 1.19140625 C-6.62805924 -0.63400293 -4.19005588 -1.34680368 0 0 Z " fill="#2A8BFB" transform="translate(490,365)"/>
<path d="M0 0 C1.11880314 1.67820471 2.23338272 3.35931357 3.33203125 5.05078125 C6.32164718 9.61803092 9.41269662 13.88515201 13 18 C7.36363688 15.61538484 2.48048603 11.64999597 0 6 C-0.1875 2.6875 -0.1875 2.6875 0 0 Z " fill="#458CF8" transform="translate(457,419)"/>
<path d="M0 0 C-0.33 0.99 -0.66 1.98 -1 3 C-1.66 3 -2.32 3 -3 3 C-3.4021875 4.1446875 -3.4021875 4.1446875 -3.8125 5.3125 C-4.94424112 7.87380884 -5.91223401 9.19692938 -8 11 C-8.6875 9.3125 -8.6875 9.3125 -9 7 C-6.94215069 2.67851644 -5.09383433 0 0 0 Z " fill="#5750F7" transform="translate(378,606)"/>
<path d="M0 0 C2.66769422 0.15243967 4.44334709 0.44650989 6.375 2.3671875 C7.60348251 3.89547824 8.80289981 5.44700516 10 7 C10.66 7.33 11.32 7.66 12 8 C11.34 9.32 10.68 10.64 10 12 C8.51814875 10.37744772 7.03959744 8.75188112 5.5625 7.125 C4.73878906 6.22007812 3.91507813 5.31515625 3.06640625 4.3828125 C1 2 1 2 0 0 Z " fill="#5966F8" transform="translate(553,574)"/>
<path d="M0 0 C4.05819183 0.65503282 7.53971282 1.94559121 11.3125 3.5625 C12.38113281 4.01753906 13.44976563 4.47257812 14.55078125 4.94140625 C15.76314453 5.46541016 15.76314453 5.46541016 17 6 C16.01 6.66 15.02 7.32 14 8 C11.125 7.25 11.125 7.25 8 6 C6.6696875 5.566875 6.6696875 5.566875 5.3125 5.125 C2.65231584 3.83085635 1.56628012 2.47307387 0 0 Z " fill="#409AF8" transform="translate(608,291)"/>
<path d="M0 0 C-0.11443603 2.0839403 -0.24195547 4.16716493 -0.375 6.25 C-0.44460938 7.41015625 -0.51421875 8.5703125 -0.5859375 9.765625 C-0.96248308 12.70694334 -1.4774123 14.49949011 -3 17 C-3.76939595 12.28744983 -4.36724067 7.77412873 -4 3 C-1.77419355 0 -1.77419355 0 0 0 Z " fill="#6B68F4" transform="translate(678,616)"/>
<path d="M0 0 C3.15330554 0.60694155 5.18888867 1.6416665 7.75 3.5625 C8.67039062 4.24505859 8.67039062 4.24505859 9.609375 4.94140625 C10.29773438 5.46541016 10.29773438 5.46541016 11 6 C10.67 6.99 10.34 7.98 10 9 C7.0625 7.75 7.0625 7.75 4 6 C3.125 3.8125 3.125 3.8125 3 2 C1.35 2.66 -0.3 3.32 -2 4 C-1.34 2.68 -0.68 1.36 0 0 Z " fill="#6A66F3" transform="translate(375,604)"/>
<path d="M0 0 C5.27710354 2.3439244 9.15080717 4.66965806 13 9 C9.06025045 9 7.17063907 7.52210525 3.8125 5.5 C2.72582031 4.8503125 1.63914062 4.200625 0.51953125 3.53125 C-0.31191406 3.0259375 -1.14335938 2.520625 -2 2 C-1.34 1.34 -0.68 0.68 0 0 Z " fill="#586AF9" transform="translate(540,564)"/>
<path d="M0 0 C4.96916636 0.51405169 9.29026351 1.23384882 14 3 C10.36636786 5.42242143 9.00156411 5.17302701 4.875 4.55859375 C3 4 3 4 1 1.9375 C0.67 1.298125 0.34 0.65875 0 0 Z " fill="#419CF9" transform="translate(585,284)"/>
<path d="M0 0 C0.33 0 0.66 0 1 0 C0.52013969 5.56890517 -0.29915181 10.67067568 -2 16 C-2.33 16 -2.66 16 -3 16 C-3.0272415 14.58344207 -3.04650467 13.16672955 -3.0625 11.75 C-3.07410156 10.96109375 -3.08570313 10.1721875 -3.09765625 9.359375 C-3.00385306 7.09308998 -2.63241063 5.1711105 -2 3 C-1.34 3 -0.68 3 0 3 C0 2.01 0 1.02 0 0 Z " fill="#2682F9" transform="translate(352,379)"/>
<path d="M0 0 C0.99 0.33 1.98 0.66 3 1 C1.68775452 4.93673644 0.08089673 7.22719294 -3 10 C-3.66 9.01 -4.32 8.02 -5 7 C-3.35 4.69 -1.7 2.38 0 0 Z " fill="#6A62F3" transform="translate(336,669)"/>
<path d="M0 0 C-1.48781815 3.78717347 -3.61988409 5.77407001 -7 8 C-7.99 7.67 -8.98 7.34 -10 7 C-4.84210526 0 -4.84210526 0 0 0 Z " fill="#5A50F2" transform="translate(637,699)"/>
<path d="M0 0 C4.51650194 0.53135317 7.42058156 2.23408575 11 5 C11.33 5.99 11.66 6.98 12 8 C7.44328408 6.48109469 3.68276708 4.04597738 0 1 C0 0.67 0 0.34 0 0 Z " fill="#4978F7" transform="translate(395,514)"/>
<path d="M0 0 C0.66 0.99 1.32 1.98 2 3 C0.625 6.6875 0.625 6.6875 -1 10 C-1.99 10 -2.98 10 -4 10 C-2.8905928 6.51329166 -1.73662334 3.22515763 0 0 Z " fill="#3490F9" transform="translate(362,353)"/>
<path d="M0 0 C4.23429756 1.31061591 8.07407404 2.94356259 12 5 C12 5.33 12 5.66 12 6 C9.69 6 7.38 6 5 6 C5 5.34 5 4.68 5 4 C4.360625 3.896875 3.72125 3.79375 3.0625 3.6875 C2.381875 3.460625 1.70125 3.23375 1 3 C0.67 2.01 0.34 1.02 0 0 Z " fill="#6A68F4" transform="translate(416,631)"/>
<path d="M0 0 C1.77155654 0.11429397 3.54226229 0.24183037 5.3125 0.375 C6.79169922 0.47941406 6.79169922 0.47941406 8.30078125 0.5859375 C11 1 11 1 14 3 C9.25 4.125 9.25 4.125 7 3 C5.7625 2.7834375 5.7625 2.7834375 4.5 2.5625 C2 2 2 2 0 0 Z " fill="#1484FD" transform="translate(560,280)"/>
<path d="M0 0 C3.63094642 2.64960955 5.89851796 5.01824456 8 9 C4.21304827 8.4590069 2.37254028 6.96567536 0 4 C0 2.68 0 1.36 0 0 Z " fill="#417BF8" transform="translate(371,490)"/>
<path d="M0 0 C-5.78591511 0.10477512 -11.29309366 -0.00749455 -17 -1 C-17 -1.33 -17 -1.66 -17 -2 C-15.58456585 -2.19658808 -14.16755969 -2.38187546 -12.75 -2.5625 C-11.96109375 -2.66691406 -11.1721875 -2.77132812 -10.359375 -2.87890625 C-6.35086579 -3.08464099 -3.49643774 -1.87309165 0 0 Z " fill="#8684F1" transform="translate(490,743)"/>
<path d="M0 0 C0 2.64 0 5.28 0 8 C-0.66 8 -1.32 8 -2 8 C-2.33 8.99 -2.66 9.98 -3 11 C-3 7.7 -3 4.4 -3 1 C-1 0 -1 0 0 0 Z " fill="#534CF5" transform="translate(675,630)"/>
<path d="M0 0 C0.33 1.32 0.66 2.64 1 4 C-1.31 5.98 -3.62 7.96 -6 10 C-6.3125 7.6875 -6.3125 7.6875 -6 5 C-3.5625 3.3125 -3.5625 3.3125 -1 2 C-0.67 1.34 -0.34 0.68 0 0 Z " fill="#348EFA" transform="translate(470,371)"/>
<path d="M0 0 C0.515625 0.37125 1.03125 0.7425 1.5625 1.125 C0.31829353 1.6595256 -0.93320936 2.17708611 -2.1875 2.6875 C-2.88359375 2.97753906 -3.5796875 3.26757812 -4.296875 3.56640625 C-6.73762784 4.20331803 -8.0778655 3.92748831 -10.4375 3.125 C-9.4375 1.125 -9.4375 1.125 -6.125 -0.125 C-2.4375 -0.875 -2.4375 -0.875 0 0 Z " fill="#7068F2" transform="translate(585.4375,729.875)"/>
<path d="M0 0 C0.33 0 0.66 0 1 0 C1.18451025 9.41002278 1.18451025 9.41002278 0 14 C-2 12 -2 12 -2.125 8.375 C-2.08375 7.26125 -2.0425 6.1475 -2 5 C-1.67 5 -1.34 5 -1 5 C-0.67 3.35 -0.34 1.7 0 0 Z " fill="#6367FA" transform="translate(677,574)"/>
<path d="M0 0 C3.59391114 1.33488128 6.75490696 2.96022723 10 5 C9.01 5.66 8.02 6.32 7 7 C1.125 3.375 1.125 3.375 0 0 Z " fill="#5371F6" transform="translate(616,490)"/>
<path d="M0 0 C0.66 0.33 1.32 0.66 2 1 C2 1.99 2 2.98 2 4 C-0.31 4.33 -2.62 4.66 -5 5 C-5 4.01 -5 3.02 -5 2 C-2.625 0.9375 -2.625 0.9375 0 0 Z " fill="#645DF7" transform="translate(573,731)"/>
<path d="M0 0 C2.875 1.75 2.875 1.75 3.875 4.75 C-0.03711733 3.59414715 -2.9995041 2.39465038 -6.125 -0.25 C-3.125 -1.25 -3.125 -1.25 0 0 Z " fill="#7268F1" transform="translate(387.125,713.25)"/>
<path d="M0 0 C2.42130331 2.42130331 2.52840504 3.80111377 3.125 7.125 C3.29257812 8.03507813 3.46015625 8.94515625 3.6328125 9.8828125 C3.81457031 10.93082031 3.81457031 10.93082031 4 12 C3.01 12.495 3.01 12.495 2 13 C1.66307215 11.39658445 1.33058907 9.79223445 1 8.1875 C0.814375 7.29417969 0.62875 6.40085937 0.4375 5.48046875 C0 3 0 3 0 0 Z " fill="#6A72F4" transform="translate(671,551)"/>
<path d="M0 0 C1.60568666 0.28317926 3.20952047 0.57687791 4.8125 0.875 C6.15248047 1.11863281 6.15248047 1.11863281 7.51953125 1.3671875 C10 2 10 2 13 4 C9.19010598 5.46534385 6.6758821 4.55203911 3 3 C2.67 2.34 2.34 1.68 2 1 C1.34 0.67 0.68 0.34 0 0 Z " fill="#597EF7" transform="translate(570,472)"/>
<path d="M0 0 C3.63 0 7.26 0 11 0 C11 0.66 11 1.32 11 2 C11.66 2.33 12.32 2.66 13 3 C8.62065881 2.48041715 4.31196609 1.94324258 0 1 C0 0.67 0 0.34 0 0 Z " fill="#7D74EF" transform="translate(440,735)"/>
<path d="M0 0 C2.97 0.495 2.97 0.495 6 1 C6 1.99 6 2.98 6 4 C6.66 4.33 7.32 4.66 8 5 C3.545 4.01 3.545 4.01 -1 3 C-0.67 2.01 -0.34 1.02 0 0 Z " fill="#5B76FB" transform="translate(518,555)"/>
<path d="M0 0 C2.475 0.495 2.475 0.495 5 1 C5.33 1.99 5.66 2.98 6 4 C6.99 4 7.98 4 9 4 C9 4.66 9 5.32 9 6 C4.75177626 5.52797514 2.80010291 3.03344482 0 0 Z " fill="#4097F8" transform="translate(621,402)"/>
<path d="M0 0 C0.99 0 1.98 0 3 0 C1.7508258 3.45925163 0.32472205 6.14693203 -2 9 C-3 6 -3 6 -1.5625 2.8125 C-1.046875 1.884375 -0.53125 0.95625 0 0 Z " fill="#3791F8" transform="translate(658,349)"/>
<path d="M0 0 C5.75 0.75 5.75 0.75 8 3 C8 3.99 8 4.98 8 6 C4.64532525 4.82133049 2.28780716 3.76945078 0 1 C0 0.67 0 0.34 0 0 Z " fill="#3D9DFB" transform="translate(599,288)"/>
<path d="M0 0 C0.66 0.66 1.32 1.32 2 2 C-1.625 6.875 -1.625 6.875 -5 8 C-5 6.68 -5 5.36 -5 4 C-4.360625 3.71125 -3.72125 3.4225 -3.0625 3.125 C-0.84793921 2.17176549 -0.84793921 2.17176549 0 0 Z " fill="#564DF8" transform="translate(342,663)"/>
<path d="M0 0 C2.38825352 3.64429796 1.94295451 6.0693436 1.125 10.25 C0.92132813 11.32765625 0.71765625 12.4053125 0.5078125 13.515625 C0.34023438 14.33546875 0.17265625 15.1553125 0 16 C-0.33 16 -0.66 16 -1 16 C-1.02712153 14.083412 -1.04645097 12.1667127 -1.0625 10.25 C-1.07410156 9.18265625 -1.08570313 8.1153125 -1.09765625 7.015625 C-1.01510087 4.46631499 -0.74617558 2.42066409 0 0 Z " fill="#1278FC" transform="translate(348,398)"/>
<path d="M0 0 C1.9375 0.875 1.9375 0.875 3.9375 4.875 C0.9675 3.885 -2.0025 2.895 -5.0625 1.875 C-2.0625 -0.125 -2.0625 -0.125 0 0 Z " fill="#419AFB" transform="translate(578.0625,373.125)"/>
<path d="M0 0 C2 1 2 1 3 3 C-1.43076923 5.09230769 -1.43076923 5.09230769 -4.3125 4.625 C-4.869375 4.41875 -5.42625 4.2125 -6 4 C-4.02 2.68 -2.04 1.36 0 0 Z " fill="#409AF9" transform="translate(418,299)"/>
<path d="M0 0 C-2.55068845 2.35448165 -3.71017358 2.98327924 -7.25 3.1875 C-8.1575 3.125625 -9.065 3.06375 -10 3 C-6.84439813 -0.15560187 -4.30999015 -1.43666338 0 0 Z " fill="#5C4FF3" transform="translate(594,727)"/>
<path d="M0 0 C1.65 0 3.3 0 5 0 C3.35 1.65 1.7 3.3 0 5 C-0.66 4.67 -1.32 4.34 -2 4 C-1.34 2.68 -0.68 1.36 0 0 Z " fill="#6A64F4" transform="translate(638,695)"/>
<path d="M0 0 C0.33 0.66 0.66 1.32 1 2 C0.06421005 4.35981813 -0.93347808 6.69631264 -2 9 C-2.33 9 -2.66 9 -3 9 C-3.36923077 3.46153846 -3.36923077 3.46153846 -1.5 1.125 C-1.005 0.75375 -0.51 0.3825 0 0 Z " fill="#544CF6" transform="translate(353,642)"/>
<path d="M0 0 C0.33 0.99 0.66 1.98 1 3 C-0.9375 6.1875 -0.9375 6.1875 -3 9 C-3.75 7.3125 -3.75 7.3125 -4 5 C-2.0625 2.25 -2.0625 2.25 0 0 Z " fill="#524CF6" transform="translate(568,627)"/>
<path d="M0 0 C0.99 0.33 1.98 0.66 3 1 C2.34 2.32 1.68 3.64 1 5 C0.01 5 -0.98 5 -2 5 C-2 2 -2 2 0 0 Z " fill="#6A66F6" transform="translate(648,684)"/>
<path d="M0 0 C1 3 1 3 -0.4375 6.1875 C-1.2109375 7.5796875 -1.2109375 7.5796875 -2 9 C-2.33 9 -2.66 9 -3 9 C-2.4140625 2.84765625 -2.4140625 2.84765625 -2 1 C-1.34 0.67 -0.68 0.34 0 0 Z " fill="#706AF0" transform="translate(668,654)"/>
<path d="M0 0 C2.31 0 4.62 0 7 0 C5.68 0.33 4.36 0.66 3 1 C3 1.99 3 2.98 3 4 C1.35 4 -0.3 4 -2 4 C-1.34 2.68 -0.68 1.36 0 0 Z " fill="#7070F6" transform="translate(519,654)"/>
<path d="M0 0 C0.33 0 0.66 0 1 0 C1.92470553 4.71599818 2.22923777 7.67265609 0 12 C-0.33 12 -0.66 12 -1 12 C-1.14285714 3.42857143 -1.14285714 3.42857143 0 0 Z " fill="#4B96F5" transform="translate(348,390)"/>
<path d="M0 0 C5.75 1.75 5.75 1.75 8 4 C3.25 5.125 3.25 5.125 1 4 C0.375 1.9375 0.375 1.9375 0 0 Z " fill="#419AFA" transform="translate(625,298)"/>
<path d="M0 0 C2.31 0 4.62 0 7 0 C5.68 1.32 4.36 2.64 3 4 C1 3 1 3 0 0 Z " fill="#6C63F1" transform="translate(615,712)"/>
<path d="M0 0 C0.75 1.75 0.75 1.75 1 4 C-0.9375 6.25 -0.9375 6.25 -3 8 C-3 4.42424104 -1.91159393 2.94704065 0 0 Z " fill="#6964EF" transform="translate(342,659)"/>
<path d="M0 0 C2.475 0.495 2.475 0.495 5 1 C5.33 2.32 5.66 3.64 6 5 C3.5625 4.1875 3.5625 4.1875 1 3 C0.67 2.01 0.34 1.02 0 0 Z " fill="#524AF5" transform="translate(393,618)"/>
<path d="M0 0 C1.875 0.25 1.875 0.25 4 1 C5.25 3.0625 5.25 3.0625 6 5 C3.69 4.34 1.38 3.68 -1 3 C-0.67 2.01 -0.34 1.02 0 0 Z " fill="#5A70FA" transform="translate(527,558)"/>
<path d="M0 0 C0.33 1.32 0.66 2.64 1 4 C-2.37462715 3.45276317 -4.08235 2.9451 -7 1 C-4 0 -4 0 0 0 Z " fill="#3D99FB" transform="translate(572,370)"/>
<path d="M0 0 C0.66 0 1.32 0 2 0 C1.67 1.98 1.34 3.96 1 6 C0.01 6.33 -0.98 6.66 -2 7 C-2 5.68 -2 4.36 -2 3 C-1.34 3 -0.68 3 0 3 C0 2.01 0 1.02 0 0 Z " fill="#2386FB" transform="translate(648,367)"/>
<path d="M0 0 C3 1 3 1 3 1 Z " fill="#827DDF" transform="translate(328,675)"/>
<path d="" fill="#777EF7" transform="translate(0,0)"/>
<path d="M0 0 C2 1 2 1 2 1 Z " fill="#7B75E6" transform="translate(476,743)"/>
<path d="M0 0 C2 1 2 1 2 1 Z " fill="#847BE2" transform="translate(373,711)"/>
<path d="M0 0 C2 1 2 1 2 1 Z " fill="#827BE0" transform="translate(368,711)"/>
<path d="M0 0 C2 1 2 1 2 1 Z " fill="#8179E6" transform="translate(370,709)"/>
<path d="M0 0 C2 1 2 1 2 1 Z " fill="#807BE5" transform="translate(346,693)"/>
<path d="" fill="#807DEF" transform="translate(0,0)"/>
<path d="M0 0 C2 1 2 1 2 1 Z " fill="#657FF6" transform="translate(515,558)"/>
<path d="" fill="#738AF1" transform="translate(0,0)"/>
<path d="M0 0 C2 1 2 1 2 1 Z " fill="#6396EE" transform="translate(362,485)"/>
<path d="M0 0 C2 1 2 1 2 1 Z " fill="#6397EC" transform="translate(360,481)"/>
<path d="M0 0 C2 1 2 1 2 1 Z " fill="#528EF7" transform="translate(492,448)"/>
<path d="M0 0 C2 1 2 1 2 1 Z " fill="#51A5F7" transform="translate(576,377)"/>
<path d="M0 0 C2 1 2 1 2 1 Z " fill="#4EA5FA" transform="translate(538,366)"/>
<path d="M0 0 C2 1 2 1 2 1 Z " fill="#51A2F0" transform="translate(524,274)"/>
<path d="" fill="#5C5D5C" transform="translate(0,0)"/>
<path d="" fill="#6D6C6C" transform="translate(0,0)"/>
<path d="" fill="#8079E4" transform="translate(0,0)"/>
<path d="" fill="#7E77E6" transform="translate(0,0)"/>
<path d="" fill="#7C75E5" transform="translate(0,0)"/>
<path d="" fill="#8178E7" transform="translate(0,0)"/>
<path d="" fill="#837BE4" transform="translate(0,0)"/>
<path d="" fill="#847DE5" transform="translate(0,0)"/>
<path d="" fill="#847DE4" transform="translate(0,0)"/>
<path d="" fill="#827BE1" transform="translate(0,0)"/>
<path d="" fill="#8077E2" transform="translate(0,0)"/>
<path d="" fill="#837AE1" transform="translate(0,0)"/>
<path d="" fill="#867BE2" transform="translate(0,0)"/>
<path d="" fill="#817BE1" transform="translate(0,0)"/>
<path d="" fill="#837EE3" transform="translate(0,0)"/>
<path d="" fill="#817DDE" transform="translate(0,0)"/>
<path d="" fill="#817ADF" transform="translate(0,0)"/>
<path d="" fill="#827BE2" transform="translate(0,0)"/>
<path d="" fill="#7C75DD" transform="translate(0,0)"/>
<path d="" fill="#837EE6" transform="translate(0,0)"/>
<path d="" fill="#7575F3" transform="translate(0,0)"/>
<path d="" fill="#7778F5" transform="translate(0,0)"/>
<path d="" fill="#7B7CED" transform="translate(0,0)"/>
<path d="" fill="#777CED" transform="translate(0,0)"/>
<path d="" fill="#7C7BF1" transform="translate(0,0)"/>
<path d="" fill="#7573F5" transform="translate(0,0)"/>
<path d="" fill="#7C7AEC" transform="translate(0,0)"/>
<path d="" fill="#7A7DED" transform="translate(0,0)"/>
<path d="" fill="#7E7EEF" transform="translate(0,0)"/>
<path d="" fill="#8080F0" transform="translate(0,0)"/>
<path d="" fill="#7176F7" transform="translate(0,0)"/>
<path d="" fill="#757AF7" transform="translate(0,0)"/>
<path d="" fill="#7C79ED" transform="translate(0,0)"/>
<path d="" fill="#717CF9" transform="translate(0,0)"/>
<path d="" fill="#6E75F8" transform="translate(0,0)"/>
<path d="" fill="#6D7EF8" transform="translate(0,0)"/>
<path d="" fill="#7D7EEF" transform="translate(0,0)"/>
<path d="" fill="#6C80F8" transform="translate(0,0)"/>
<path d="" fill="#787CEE" transform="translate(0,0)"/>
<path d="" fill="#6B80FA" transform="translate(0,0)"/>
<path d="" fill="#6C86F8" transform="translate(0,0)"/>
<path d="" fill="#6987F5" transform="translate(0,0)"/>
<path d="" fill="#6E8DF7" transform="translate(0,0)"/>
<path d="" fill="#777EF1" transform="translate(0,0)"/>
<path d="" fill="#6788F4" transform="translate(0,0)"/>
<path d="" fill="#6B8BF3" transform="translate(0,0)"/>
<path d="" fill="#6B8CF5" transform="translate(0,0)"/>
<path d="" fill="#698DF4" transform="translate(0,0)"/>
<path d="" fill="#6A8AF4" transform="translate(0,0)"/>
<path d="" fill="#6F90F2" transform="translate(0,0)"/>
<path d="" fill="#668AF1" transform="translate(0,0)"/>
<path d="" fill="#6990F1" transform="translate(0,0)"/>
<path d="" fill="#7186F1" transform="translate(0,0)"/>
<path d="" fill="#7288F1" transform="translate(0,0)"/>
<path d="" fill="#6A92F1" transform="translate(0,0)"/>
<path d="" fill="#678CF0" transform="translate(0,0)"/>
<path d="" fill="#7187F2" transform="translate(0,0)"/>
<path d="" fill="#6591EF" transform="translate(0,0)"/>
<path d="" fill="#6397F0" transform="translate(0,0)"/>
<path d="" fill="#6296EF" transform="translate(0,0)"/>
<path d="" fill="#6087F8" transform="translate(0,0)"/>
<path d="" fill="#6399EF" transform="translate(0,0)"/>
<path d="" fill="#6698EC" transform="translate(0,0)"/>
<path d="" fill="#618BF7" transform="translate(0,0)"/>
<path d="" fill="#5A99F8" transform="translate(0,0)"/>
<path d="" fill="#4F90F8" transform="translate(0,0)"/>
<path d="" fill="#5499F9" transform="translate(0,0)"/>
<path d="" fill="#639CEB" transform="translate(0,0)"/>
<path d="" fill="#64A0ED" transform="translate(0,0)"/>
<path d="" fill="#5EA4F3" transform="translate(0,0)"/>
<path d="" fill="#5EA7F0" transform="translate(0,0)"/>
<path d="" fill="#57A1F8" transform="translate(0,0)"/>
<path d="" fill="#59A5F7" transform="translate(0,0)"/>
<path d="" fill="#53A3F7" transform="translate(0,0)"/>
<path d="" fill="#4FA2F5" transform="translate(0,0)"/>
<path d="" fill="#4EA1F9" transform="translate(0,0)"/>
<path d="" fill="#56A0EF" transform="translate(0,0)"/>
<path d="" fill="#51A6F9" transform="translate(0,0)"/>
<path d="" fill="#60A2EF" transform="translate(0,0)"/>
<path d="" fill="#48A3FE" transform="translate(0,0)"/>
<path d="" fill="#62A4EB" transform="translate(0,0)"/>
<path d="" fill="#61A2E8" transform="translate(0,0)"/>
<path d="" fill="#61A2EB" transform="translate(0,0)"/>
<path d="" fill="#5BA3EC" transform="translate(0,0)"/>
<path d="" fill="#5EA4EB" transform="translate(0,0)"/>
<path d="" fill="#5AA2E9" transform="translate(0,0)"/>
<path d="" fill="#57A2E7" transform="translate(0,0)"/>
<path d="" fill="#62A6F0" transform="translate(0,0)"/>
<path d="" fill="#64A5EC" transform="translate(0,0)"/>
<path d="" fill="#59A1EC" transform="translate(0,0)"/>
<path d="" fill="#5AA4F1" transform="translate(0,0)"/>
<path d="" fill="#5DA6F0" transform="translate(0,0)"/>
<path d="" fill="#509FF0" transform="translate(0,0)"/>
<path d="" fill="#53A2F1" transform="translate(0,0)"/>
<path d="" fill="#58A7F1" transform="translate(0,0)"/>
<path d="" fill="#54A5F0" transform="translate(0,0)"/>
<path d="" fill="#58A4F3" transform="translate(0,0)"/>
</svg>
